<svg width="160" height="87" viewBox="0 0 160 87" fill="none" xmlns="http://www.w3.org/2000/svg">
<g clip-path="url(#clip0_25_53)">
<path d="M37.4409 82.0051C37.4409 78.9713 39.3558 77.0449 42.3502 77.0449C45.3445 77.0449 47.2595 78.9713 47.2595 82.0051C47.2595 85.0389 45.3445 87 42.3502 87C39.3558 87 37.4409 85.0505 37.4409 82.0051ZM42.3502 85.2812C44.0795 85.2812 45.0428 84.1046 45.0428 82.0167C45.0428 79.9288 44.0911 78.7752 42.3502 78.7752C40.6093 78.7752 39.6576 79.9288 39.6576 82.0167C39.6576 84.1046 40.6093 85.2812 42.3502 85.2812Z" fill="#008F4F"/>
<path d="M48.5478 77.1949H50.9734L55.3373 83.251V77.1949H57.4148V86.85H55.5462L51.194 80.7824C51.2056 81.0823 51.2172 81.3938 51.2172 81.8321V86.85H49.1397V79.3635C49.1397 78.3254 48.954 77.8524 48.5478 77.1949Z" fill="#008F4F"/>
<path d="M59.8984 84.9005V79.1328C59.8984 78.1523 59.8172 77.6448 59.6779 77.1833H66.5022V78.8214H61.9295C62.0107 79.029 62.0571 79.2366 62.0571 79.5481V81.0939H65.9568V82.6742H62.0571V84.4506C62.0571 84.7621 62.0107 84.9697 61.9295 85.1774H66.6415V86.8154H59.6779C59.8172 86.3655 59.8984 85.8464 59.8984 84.8659V84.9005Z" fill="#008F4F"/>
<path d="M72.2123 84.9005V79.1328C72.2123 78.1523 72.1311 77.6448 71.9918 77.1833H76.1584C78.3055 77.1833 79.5009 78.1062 79.5009 79.5366C79.5009 80.6209 78.7465 81.313 77.3886 81.6129C79.0831 81.9244 80.0116 82.7203 80.0116 84.0584C80.0116 85.6734 78.7117 86.8269 76.3557 86.8269H72.0034C72.1427 86.3771 72.2239 85.858 72.2239 84.8775L72.2123 84.9005ZM74.313 79.4674V81.1746H75.8102C76.8663 81.1746 77.435 80.7363 77.435 79.9288C77.435 79.1213 76.8663 78.7406 75.8102 78.7406H74.1854C74.2666 78.9367 74.313 79.1444 74.313 79.4558V79.4674ZM75.9843 85.3043C77.2029 85.3043 77.8877 84.8313 77.8877 83.9431C77.8877 83.0549 77.2029 82.5934 75.9843 82.5934H74.3014V84.5891C74.3014 84.9005 74.255 85.1082 74.1737 85.3043H75.9727H75.9843Z" fill="#008F4F"/>
<path d="M84.5379 77.1949H86.4645L90.2365 86.85H88.0081L87.2537 84.739H83.6094L82.8434 86.85H80.7079L84.5379 77.1949ZM86.7315 83.3087L85.4432 79.6981L84.1433 83.3087H86.7315Z" fill="#008F4F"/>
<path d="M91.0489 77.1949H93.4745L97.8384 83.251V77.1949H99.9159V86.85H98.0473L93.6951 80.7824C93.7067 81.0823 93.7183 81.3938 93.7183 81.8321V86.85H91.6408V79.3635C91.6408 78.3254 91.4551 77.8524 91.0489 77.1949Z" fill="#008F4F"/>
<path d="M101.726 82.0513C101.726 78.9944 103.746 77.0449 106.926 77.0449C107.912 77.0449 109.003 77.2295 110.106 77.7601V79.6173C109.247 79.0636 108.237 78.7983 107.251 78.7983C105.127 78.7983 103.955 79.9518 103.955 82.0398C103.955 84.1277 105.022 85.3158 106.937 85.3158C107.495 85.3158 107.994 85.2466 108.411 85.0851C108.365 84.9467 108.353 84.7852 108.353 84.5891V83.1702H106.496V81.5207H110.419V86.6654C110.187 86.5039 109.967 86.4347 109.572 86.5732C108.934 86.8039 107.924 87 106.845 87C103.723 87 101.738 85.0851 101.738 82.0513H101.726Z" fill="#008F4F"/>
<path d="M112.694 77.1949H114.841V81.0131H115.201C115.746 81.0131 115.909 80.8285 116.466 80.1018L118.66 77.1949H120.992L118.427 80.4709C117.998 81.0246 117.371 81.4745 116.698 81.6821C117.313 81.8321 117.905 82.1551 118.404 82.8588L121.294 86.8385H118.776L116.524 83.6662C115.932 82.8242 115.7 82.6857 115.189 82.6857H114.853V86.8385H112.706V77.1833L112.694 77.1949Z" fill="#008F4F"/>
<path d="M121.503 82.0051C121.503 78.9713 123.418 77.0449 126.412 77.0449C129.407 77.0449 131.322 78.9713 131.322 82.0051C131.322 85.0389 129.407 87 126.412 87C123.418 87 121.503 85.0505 121.503 82.0051ZM126.412 85.2812C128.142 85.2812 129.105 84.1046 129.105 82.0167C129.105 79.9288 128.153 78.7752 126.412 78.7752C124.671 78.7752 123.72 79.9288 123.72 82.0167C123.72 84.1046 124.671 85.2812 126.412 85.2812Z" fill="#008F4F"/>
<path d="M132.749 77.1949H134.896V81.0131H135.256C135.802 81.0131 135.964 80.8285 136.521 80.1018L138.715 77.1949H141.047L138.483 80.4709C138.053 81.0246 137.426 81.4745 136.753 81.6821C137.368 81.8321 137.96 82.1551 138.459 82.8588L141.349 86.8385H138.831L136.579 83.6662C135.987 82.8242 135.755 82.6857 135.244 82.6857H134.908V86.8385H132.761V77.1833L132.749 77.1949Z" fill="#008F4F"/>
<path d="M68.8699 19.2757H73.0016V3.36834H78.4448V0H63.4499V3.36834H68.8699V19.2757Z" fill="#008F4F"/>
<path d="M85.5709 11.0855H94.02V19.2757H98.1518V0H94.02V7.61337H85.5709V0H81.4276V19.2757H85.5709V11.0855Z" fill="#008F4F"/>
<path d="M101.575 18.8027L101.425 19.2641H115.317V15.9189H105.974C106.079 15.5151 106.113 15.0768 106.113 14.5807V11.0163H113.982V7.72872H106.113V4.67184C106.113 4.17582 106.067 3.73747 105.974 3.33373H115.05V0H101.425L101.575 0.461416C101.819 1.24582 101.982 2.14558 101.982 4.01432V15.2498C101.982 17.1185 101.819 18.0183 101.575 18.8027Z" fill="#008F4F"/>
<path d="M56.7764 55.8775H48.3157V48.2756H44.184V67.5398H48.3157V59.3496H56.7764V67.5398H60.9082V48.2756H56.7764V55.8775Z" fill="#008F4F"/>
<path d="M73.3033 47.9757C67.5236 47.9757 63.798 51.8631 63.798 57.8731C63.798 63.883 67.5352 67.8281 73.3033 67.8281C79.0715 67.8281 82.8086 63.9176 82.8086 57.8731C82.8086 51.8285 79.0715 47.9757 73.3033 47.9757ZM78.5724 57.8846C78.5724 62.0604 76.7039 64.3675 73.3033 64.3675C69.9028 64.3675 68.0342 62.0604 68.0342 57.8846C68.0342 53.7088 69.9028 51.4594 73.3033 51.4594C76.7039 51.4594 78.5724 53.7434 78.5724 57.8846Z" fill="#008F4F"/>
<path d="M97.5598 59.6842C97.5598 62.7064 96.1323 64.3675 93.5442 64.3675C90.2481 64.3675 89.5517 61.8182 89.5517 59.6842V48.2756H85.42V59.8226C85.42 64.6905 88.5884 67.8397 93.4861 67.8397C98.3839 67.8397 101.529 64.6905 101.529 59.8226V48.2756H97.5598V59.6842Z" fill="#008F4F"/>
<path d="M111.592 55.5891C108.852 55.1277 108.481 54.1241 108.481 53.2128C108.481 51.5863 110.245 51.344 111.29 51.344C113.182 51.344 115.131 51.9324 116.768 53.0051L117.325 53.3743V49.7291L117.151 49.6253C115.363 48.5294 113.332 47.9872 111.092 47.9872C106.949 47.9872 104.384 50.1213 104.384 53.5704C104.384 57.0195 106.589 58.7844 111.325 59.5919C113.808 59.9956 114.087 61.1837 114.087 62.0489C114.087 63.537 112.833 64.4252 110.744 64.4252C108.655 64.4252 106.589 63.7446 104.906 62.5103L104.338 62.095V65.9133L104.5 66.0171C106.334 67.2052 108.632 67.8512 110.965 67.8512C115.503 67.8512 118.311 65.4865 118.311 61.6913C118.311 58.2884 116.234 56.4081 111.58 55.6121L111.592 55.5891Z" fill="#008F4F"/>
<path d="M125.391 62.8679V59.3035H133.26V56.0159H125.391V52.959C125.391 52.463 125.345 52.0246 125.252 51.6209H134.328V48.2756H120.702L120.853 48.7371C121.097 49.5215 121.259 50.4212 121.259 52.29V63.5254C121.259 65.3826 121.097 66.2939 120.853 67.0783L120.702 67.5398H134.595V64.1945H125.252C125.356 63.7792 125.391 63.3524 125.391 62.8564V62.8679Z" fill="#008F4F"/>
<path d="M57.1594 24.1321H53.0277V43.4077H57.1594V24.1321Z" fill="#008F4F"/>
<path d="M70.634 38.1015L73.373 43.4077H77.8413L74.3595 36.8902C73.7676 35.7713 73.1641 34.8715 72.2936 34.2717C75.1139 33.6719 76.6459 32.0684 76.6459 29.6921C76.6459 26.3238 73.7676 24.1436 69.3225 24.1436H61.1983L61.3492 24.605C61.5929 25.3894 61.7554 26.2892 61.7554 28.1579V43.4193H65.8871V35.9213H67.2102C69.2296 35.9213 69.7287 36.3596 70.6224 38.113L70.634 38.1015ZM65.7595 27.4543H68.9511C71.3303 27.4543 72.5373 28.3425 72.5373 30.0959C72.5373 32.253 70.5875 32.7029 68.9511 32.7029H65.8987V28.7693C65.8987 28.2041 65.8407 27.7888 65.7595 27.4543Z" fill="#008F4F"/>
<path d="M80.766 42.9463L80.6151 43.4077H94.5075V40.0625H85.1647C85.2575 39.6587 85.3039 39.2204 85.3039 38.7244V35.1599H93.1728V31.8723H85.3039V28.8155C85.3039 28.3194 85.2575 27.8811 85.1647 27.4773H94.2405V24.1321H80.6151L80.766 24.5935C81.0097 25.3779 81.1722 26.2777 81.1722 28.1464V39.3819C81.1722 41.2506 81.0097 42.1504 80.766 42.9348V42.9463Z" fill="#008F4F"/>
<path d="M102.086 24.1321H97.9544V39.3934C97.9544 41.2622 97.7919 42.1619 97.5482 42.9463L97.3973 43.4077H110.489V40.0394H101.935C102.017 39.6933 102.086 39.2665 102.086 38.7013V24.1321Z" fill="#008F4F"/>
<path d="M126.238 24.1321H112.613L112.764 24.5935C113.007 25.3779 113.17 26.2777 113.17 28.1464V39.3819C113.17 41.2506 113.007 42.1504 112.764 42.9348L112.613 43.3962H126.505V40.0509H117.162C117.255 39.6472 117.302 39.2089 117.302 38.7128V35.1484H125.17V31.8608H117.302V28.8039C117.302 28.3079 117.255 27.8695 117.162 27.4658H126.238V24.1205V24.1321Z" fill="#008F4F"/>
<path d="M136.927 31.4571C134.188 30.9956 133.817 29.9921 133.817 29.0808C133.817 27.4543 135.581 27.212 136.626 27.212C138.517 27.212 140.467 27.8003 142.104 28.8731L142.661 29.2423V25.5971L142.487 25.4933C140.699 24.3974 138.668 23.8552 136.428 23.8552C132.285 23.8552 129.72 25.9893 129.72 29.4384C129.72 32.8874 131.925 34.6524 136.66 35.4598C139.144 35.8636 139.423 37.0517 139.423 37.9169C139.423 39.4049 138.169 40.2932 136.08 40.2932C133.991 40.2932 131.925 39.6126 130.242 38.3783L129.674 37.963V41.7812L129.836 41.8851C131.67 43.0732 133.968 43.7192 136.301 43.7192C140.839 43.7192 143.647 41.3544 143.647 37.5593C143.647 34.1563 141.57 32.2761 136.916 31.4801L136.927 31.4571Z" fill="#008F4F"/>
<path d="M153.269 31.4571C150.529 30.9956 150.158 29.9921 150.158 29.0808C150.158 27.4543 151.922 27.212 152.967 27.212C154.859 27.212 156.808 27.8003 158.445 28.8731L159.002 29.2423V25.5971L158.828 25.4933C157.04 24.3974 155.009 23.8552 152.769 23.8552C148.626 23.8552 146.061 25.9893 146.061 29.4384C146.061 32.8874 148.266 34.6524 153.002 35.4598C155.485 35.8636 155.764 37.0517 155.764 37.9169C155.764 39.4049 154.51 40.2932 152.421 40.2932C150.332 40.2932 148.266 39.6126 146.583 38.3783L146.015 37.963V41.7812L146.177 41.8851C148.011 43.0732 150.309 43.7192 152.642 43.7192C157.18 43.7192 159.988 41.3544 159.988 37.5593C159.988 34.1563 157.911 32.2761 153.257 31.4801L153.269 31.4571Z" fill="#008F4F"/>
<path d="M48.1764 43.4077V24.1321H44.0447V39.428L28.9569 24.1321H24.2913H24.2217L27.7151 40.224L5.61729 24.1321H0L26.9143 43.4077H32.6128L29.2471 28.7808L43.6153 43.4077H48.1764Z" fill="#008F4F"/>
</g>
<defs>
<clipPath id="clip0_25_53">
<rect width="160" height="87" fill="white"/>
</clipPath>
</defs>
</svg>
